<svg id="f667986c-df80-4bd4-9acb-82ab8afe8fe5" data-name="Layer 1" xmlns="http://www.w3.org/2000/svg" viewBox="0 0 355 219"><defs><style>.\37 31a1eb6-2b4e-4fd8-9f01-8d1fceb38973{font-size:18px;font-family:MyriadPro-Regular, Myriad Pro;}</style></defs><title>card</title><path d="M422,522a11,11,0,0,1,11,11V728a11,11,0,0,1-11,11H91a11,11,0,0,1-11-11V533a11,11,0,0,1,11-11H422m0-1H91a12,12,0,0,0-12,12V728a12,12,0,0,0,12,12H422a12,12,0,0,0,12-12V533a12,12,0,0,0-12-12Z" transform="translate(-79 -521)"/><text class="731a1eb6-2b4e-4fd8-9f01-8d1fceb38973" transform="translate(31.37 174.37)"><tspan xml:space="preserve">9999  9999  9999  9999</tspan></text></svg>