<svg id="b1fd1533-b0c5-49d6-ab96-3a129f2faa84" data-name="Layer 1" xmlns="http://www.w3.org/2000/svg" viewBox="0 0 1339.93 669.63"><defs><style>.\37 9835ec7-6144-428c-b36f-6cc13acdff56{fill:none;stroke:#000;stroke-miterlimit:10;stroke-width:3px;}.\33 c4313e9-8a97-4aac-a1d4-ecb8daa280b3,.\38 be8af0a-1715-44b5-8dcd-53b6a91c156d{font-size:48px;font-family:AvenirNext-Regular, Avenir Next;}.\38 be8af0a-1715-44b5-8dcd-53b6a91c156d{letter-spacing:-0.02em;}</style></defs><title>curves</title><path class="79835ec7-6144-428c-b36f-6cc13acdff56" d="M963.26,42.31c0,267-212.36,483.44-474.33,483.44S14.59,309.31,14.59,42.31" transform="translate(-12.7 -41.99)"/><path class="79835ec7-6144-428c-b36f-6cc13acdff56" d="M800.67,42C800.67,258.88,624.84,434.7,408,434.7S15.24,258.88,15.24,42" transform="translate(-12.7 -41.99)"/><path class="79835ec7-6144-428c-b36f-6cc13acdff56" d="M1179,43.48c0,321.66-260.76,582.42-582.41,582.42S14.2,365.14,14.2,43.48" transform="translate(-12.7 -41.99)"/><path class="79835ec7-6144-428c-b36f-6cc13acdff56" d="M1351.13,43.54c0,368.14-298.43,666.58-666.57,666.58S18,411.68,18,43.54" transform="translate(-12.7 -41.99)"/><text class="8be8af0a-1715-44b5-8dcd-53b6a91c156d" transform="translate(716.84 61.35)">A</text><text class="3c4313e9-8a97-4aac-a1d4-ecb8daa280b3" transform="translate(886.75 60.88)">B</text><text class="3c4313e9-8a97-4aac-a1d4-ecb8daa280b3" transform="translate(1104.54 60.84)">C</text><text class="3c4313e9-8a97-4aac-a1d4-ecb8daa280b3" transform="translate(1277.25 61.8)">D</text></svg>